<svg width="274" height="263" viewBox="0 0 274 263" fill="none" xmlns="http://www.w3.org/2000/svg">
<path d="M55.3141 225.483C65.6464 235.815 77.7843 244.342 91.126 250.762C107.678 258.586 126.236 263 145.797 263C161.947 263 177.496 259.991 191.74 254.473C208.593 247.953 223.74 238.022 236.28 225.483C248.016 213.746 257.446 199.802 263.966 184.254C268.28 174.022 271.189 163.088 272.693 151.752C273.396 146.235 273.797 140.618 273.797 135C273.797 113.533 268.48 93.3699 259.251 75.6144C253.233 64.0784 245.508 53.6458 236.38 44.5172C223.74 31.9781 208.593 21.9467 191.74 15.5266C177.496 10.0094 162.048 7 145.797 7C126.236 7 107.678 11.4138 91.126 19.2382C77.7843 25.558 65.6464 34.185 55.3141 44.4169C46.1856 53.5455 38.4614 63.9781 32.4426 75.5141C23.1135 93.3699 17.7969 113.533 17.7969 135C17.7969 140.718 18.1981 146.335 18.9003 151.752C20.405 163.088 23.4144 174.022 27.6276 184.254C34.148 199.802 43.5774 213.746 55.3141 225.483Z" fill="url(#paint0_radial_5910_10928)" style=""/>
<path opacity="0.45" d="M55.3141 225.483C65.6464 235.815 77.7843 244.342 91.126 250.762C107.678 258.586 126.236 263 145.797 263C161.947 263 177.496 259.991 191.74 254.473C208.593 247.953 223.74 238.022 236.28 225.483C248.016 213.746 257.446 199.802 263.966 184.254C268.28 174.022 271.189 163.088 272.693 151.752C273.396 146.235 273.797 140.618 273.797 135C273.797 113.533 268.48 93.3699 259.251 75.6144C253.233 64.0784 245.508 53.6458 236.38 44.5172C223.74 31.9781 208.593 21.9467 191.74 15.5266C177.496 10.0094 162.048 7 145.797 7C126.236 7 107.678 11.4138 91.126 19.2382C77.7843 25.558 65.6464 34.185 55.3141 44.4169C46.1856 53.5455 38.4614 63.9781 32.4426 75.5141C23.1135 93.3699 17.7969 113.533 17.7969 135C17.7969 140.718 18.1981 146.335 18.9003 151.752C20.405 163.088 23.4144 174.022 27.6276 184.254C34.148 199.802 43.5774 213.746 55.3141 225.483Z" fill="url(#paint1_radial_5910_10928)" style=""/>
<path opacity="0.3" d="M55.3141 225.483C65.6464 235.815 77.7843 244.342 91.126 250.762C107.678 258.586 126.236 263 145.797 263C161.947 263 177.496 259.991 191.74 254.473C208.593 247.953 223.74 238.022 236.28 225.483C248.016 213.746 257.446 199.802 263.966 184.254C268.28 174.022 271.189 163.088 272.693 151.752C273.396 146.235 273.797 140.618 273.797 135C273.797 113.533 268.48 93.3699 259.251 75.6144C253.233 64.0784 245.508 53.6458 236.38 44.5172C223.74 31.9781 208.593 21.9467 191.74 15.5266C177.496 10.0094 162.048 7 145.797 7C126.236 7 107.678 11.4138 91.126 19.2382C77.7843 25.558 65.6464 34.185 55.3141 44.4169C46.1856 53.5455 38.4614 63.9781 32.4426 75.5141C23.1135 93.3699 17.7969 113.533 17.7969 135C17.7969 140.718 18.1981 146.335 18.9003 151.752C20.405 163.088 23.4144 174.022 27.6276 184.254C34.148 199.802 43.5774 213.746 55.3141 225.483Z" fill="url(#paint2_radial_5910_10928)" style=""/>
<g opacity="0.3">
<path d="M273.797 135C273.797 205.721 216.518 263 145.797 263C75.1762 263 17.7969 205.621 17.7969 135C17.7969 64.279 75.1762 7 145.797 7C216.518 7 273.797 64.279 273.797 135Z" fill="#8BC63F" style="fill:#8BC63F;fill:color(display-p3 0.5451 0.7765 0.2471);fill-opacity:1;"/>
<path d="M259.858 76.718L236.284 118.148H212.309L201.174 75.9155L182.817 145.734H161.55L147.607 185.959L127.243 109.721L113.902 140.818H83.2056L63.0426 165.295L53.6131 135.602L43.8827 155.163H19.4062C29.0363 216.254 82.0019 263 145.801 263C216.522 263 273.801 205.721 273.801 135C273.801 114.035 268.786 94.2729 259.858 76.718Z" fill="#448600" style="fill:#448600;fill:color(display-p3 0.2666 0.5252 0.0000);fill-opacity:1;"/>
</g>
<g opacity="0.25">
<path d="M273.797 135C273.797 205.721 216.518 263 145.797 263C75.1762 263 17.7969 205.621 17.7969 135C17.7969 64.279 75.1762 7 145.797 7C216.518 7 273.797 64.279 273.797 135Z" fill="#9AFF00" style="fill:#9AFF00;fill:color(display-p3 0.6038 1.0000 0.0000);fill-opacity:1;"/>
<g filter="url(#filter0_f_5910_10928)">
<path d="M109.29 76.7181C109.29 94.7309 94.7006 109.32 76.6878 109.32C58.7006 109.32 44.0859 94.7053 44.0859 76.7181C44.0859 58.7053 58.7006 44.1162 76.6878 44.1162C94.7006 44.1162 109.29 58.7053 109.29 76.7181Z" fill="#55D341" style="fill:#55D341;fill:color(display-p3 0.3333 0.8275 0.2549);fill-opacity:1;"/>
</g>
<path d="M259.858 76.718L236.284 118.148H212.309L201.174 75.9155L182.817 145.734H161.55L147.607 185.959L127.243 109.721L113.902 140.818H83.2056L63.0426 165.295L53.6131 135.602L43.8827 155.163H19.4062C29.0363 216.254 82.0019 263 145.801 263C216.522 263 273.801 205.721 273.801 135C273.801 114.035 268.786 94.2729 259.858 76.718Z" fill="url(#paint3_linear_5910_10928)" style=""/>
</g>
<path d="M53.6138 135.602L63.0432 165.295L83.2063 140.718H114.002L127.344 109.621L147.708 185.859L161.651 145.633H182.918L201.275 75.815L212.41 118.047H236.385L259.959 76.6175C258.053 72.8056 255.846 69.094 253.539 65.583L229.965 107.113H220.937L201.275 32.6802L174.492 134.699H153.927L149.213 148.442L129.952 76.1159L106.981 129.784H77.99L67.3567 142.724L55.921 106.31L37.0621 144.028H18.2031C18.5041 147.74 18.9053 151.451 19.4069 155.063H43.7831L53.6138 135.602Z" fill="url(#paint4_radial_5910_10928)" style=""/>
<defs>
<filter id="filter0_f_5910_10928" x="0.0859375" y="0.116211" width="153.203" height="153.204" filterUnits="userSpaceOnUse" color-interpolation-filters="sRGB">
<feFlood flood-opacity="0" result="BackgroundImageFix"/>
<feBlend mode="normal" in="SourceGraphic" in2="BackgroundImageFix" result="shape"/>
<feGaussianBlur stdDeviation="22" result="effect1_foregroundBlur_5910_10928"/>
</filter>
<radialGradient id="paint0_radial_5910_10928" cx="0" cy="0" r="1" gradientUnits="userSpaceOnUse" gradientTransform="translate(127.643 53.4916) scale(199.327)">
<stop stop-color="#B3D334" style="stop-color:#B3D334;stop-color:color(display-p3 0.7020 0.8275 0.2039);stop-opacity:1;"/>
<stop offset="0.1024" stop-color="#ACCE40" style="stop-color:#ACCE40;stop-color:color(display-p3 0.6745 0.8078 0.2510);stop-opacity:1;"/>
<stop offset="0.292" stop-color="#9BC55F" style="stop-color:#9BC55F;stop-color:color(display-p3 0.6078 0.7725 0.3725);stop-opacity:1;"/>
<stop offset="0.5478" stop-color="#7BB887" style="stop-color:#7BB887;stop-color:color(display-p3 0.4824 0.7216 0.5294);stop-opacity:1;"/>
<stop offset="0.8568" stop-color="#46A9B2" style="stop-color:#46A9B2;stop-color:color(display-p3 0.2745 0.6627 0.6980);stop-opacity:1;"/>
<stop offset="1" stop-color="#04A2C5" style="stop-color:#04A2C5;stop-color:color(display-p3 0.0157 0.6353 0.7725);stop-opacity:1;"/>
</radialGradient>
<radialGradient id="paint1_radial_5910_10928" cx="0" cy="0" r="1" gradientUnits="userSpaceOnUse" gradientTransform="translate(127.643 53.4916) scale(199.327)">
<stop stop-color="#FCF5A8" style="stop-color:#FCF5A8;stop-color:color(display-p3 0.9882 0.9608 0.6588);stop-opacity:1;"/>
<stop offset="0.4233" stop-color="#CDDD54" style="stop-color:#CDDD54;stop-color:color(display-p3 0.8039 0.8667 0.3294);stop-opacity:1;"/>
<stop offset="1" stop-color="#4CBED6" style="stop-color:#4CBED6;stop-color:color(display-p3 0.2980 0.7451 0.8392);stop-opacity:1;"/>
</radialGradient>
<radialGradient id="paint2_radial_5910_10928" cx="0" cy="0" r="1" gradientUnits="userSpaceOnUse" gradientTransform="translate(127.643 53.4916) scale(199.327)">
<stop stop-color="#97EB1B" style="stop-color:#97EB1B;stop-color:color(display-p3 0.5922 0.9216 0.1059);stop-opacity:1;"/>
<stop offset="0.4233" stop-color="#61D732" style="stop-color:#61D732;stop-color:color(display-p3 0.3804 0.8431 0.1961);stop-opacity:1;"/>
<stop offset="1" stop-color="#4CBED6" style="stop-color:#4CBED6;stop-color:color(display-p3 0.2980 0.7451 0.8392);stop-opacity:1;"/>
</radialGradient>
<linearGradient id="paint3_linear_5910_10928" x1="146.604" y1="124.868" x2="146.604" y2="263" gradientUnits="userSpaceOnUse">
<stop stop-color="#66D92B" style="stop-color:#66D92B;stop-color:color(display-p3 0.4000 0.8510 0.1686);stop-opacity:1;"/>
<stop offset="1" stop-color="#448600" style="stop-color:#448600;stop-color:color(display-p3 0.2667 0.5255 0.0000);stop-opacity:1;"/>
</linearGradient>
<radialGradient id="paint4_radial_5910_10928" cx="0" cy="0" r="1" gradientUnits="userSpaceOnUse" gradientTransform="translate(138.996 109.351) scale(101.162)">
<stop offset="0.6135" stop-color="white" style="stop-color:white;stop-opacity:1;"/>
<stop offset="0.7255" stop-color="#F8FAF7" style="stop-color:#F8FAF7;stop-color:color(display-p3 0.9725 0.9804 0.9686);stop-opacity:1;"/>
<stop offset="0.8517" stop-color="#EBEFE9" style="stop-color:#EBEFE9;stop-color:color(display-p3 0.9216 0.9373 0.9137);stop-opacity:1;"/>
<stop offset="0.9842" stop-color="#D6E1D5" style="stop-color:#D6E1D5;stop-color:color(display-p3 0.8392 0.8824 0.8353);stop-opacity:1;"/>
<stop offset="1" stop-color="#D3DFD3" style="stop-color:#D3DFD3;stop-color:color(display-p3 0.8275 0.8745 0.8275);stop-opacity:1;"/>
</radialGradient>
</defs>
</svg>
